<svg xmlns="http://www.w3.org/2000/svg" viewBox="0 0 32 32" shape-rendering="crispEdges">
  <!-- Left X eye -->
  <rect fill="#111" x="8"  y="13" width="1" height="1"/>
  <rect fill="#111" x="12" y="13" width="1" height="1"/>
  <rect fill="#111" x="9"  y="14" width="1" height="1"/>
  <rect fill="#111" x="11" y="14" width="1" height="1"/>
  <rect fill="#111" x="10" y="15" width="1" height="1"/>
  <rect fill="#111" x="9"  y="16" width="1" height="1"/>
  <rect fill="#111" x="11" y="16" width="1" height="1"/>
  <rect fill="#111" x="8"  y="17" width="1" height="1"/>
  <rect fill="#111" x="12" y="17" width="1" height="1"/>
  <!-- Right X eye -->
  <rect fill="#111" x="18" y="13" width="1" height="1"/>
  <rect fill="#111" x="22" y="13" width="1" height="1"/>
  <rect fill="#111" x="19" y="14" width="1" height="1"/>
  <rect fill="#111" x="21" y="14" width="1" height="1"/>
  <rect fill="#111" x="20" y="15" width="1" height="1"/>
  <rect fill="#111" x="19" y="16" width="1" height="1"/>
  <rect fill="#111" x="21" y="16" width="1" height="1"/>
  <rect fill="#111" x="18" y="17" width="1" height="1"/>
  <rect fill="#111" x="22" y="17" width="1" height="1"/>
</svg>
